<?xml version="1.0" encoding="UTF-8" standalone="no"?>
<svg
   xmlns:dc="http://purl.org/dc/elements/1.1/"
   xmlns:cc="http://creativecommons.org/ns#"
   xmlns:rdf="http://www.w3.org/1999/02/22-rdf-syntax-ns#"
   xmlns:svg="http://www.w3.org/2000/svg"
   xmlns="http://www.w3.org/2000/svg"
   viewBox="0 0 1333.3333 1333.3333"
   height="1333.3333"
   width="1333.3333"
   xml:space="preserve"
   id="svg2"
   version="1.1"><metadata
     id="metadata8"><rdf:RDF><cc:Work
         rdf:about=""><dc:format>image/svg+xml</dc:format><dc:type
           rdf:resource="http://purl.org/dc/dcmitype/StillImage" /></cc:Work></rdf:RDF></metadata><defs
     id="defs6"><clipPath
       id="clipPath18"
       clipPathUnits="userSpaceOnUse"><path
         id="path16"
         d="M 0,1000 H 1000 V 0 H 0 Z" /></clipPath><clipPath
       id="clipPath70"
       clipPathUnits="userSpaceOnUse"><path
         id="path68"
         d="m 357.262,365.864 c 30.696,-39.504 112.281,-95.572 212.54,-58.76 v 0 c 3.608,1.352 7.12,2.79 10.537,4.309 v 0 c 0,0 -4.998,53.97 -47.32,101.87 v 0 c -42.323,47.9 -95.472,71.522 -125.657,106.299 v 0 c -30.183,34.777 -48.094,71.976 -48.094,122.172 v 0 C 283.068,514.396 327.52,404.14 357.262,365.864" /></clipPath><radialGradient
       id="radialGradient80"
       spreadMethod="pad"
       gradientTransform="matrix(153.89828,0,0,-153.89828,448.69803,468.43307)"
       gradientUnits="userSpaceOnUse"
       r="1"
       cy="0"
       cx="0"
       fy="0"
       fx="0"><stop
         id="stop76"
         offset="0"
         style="stop-opacity:1;stop-color:#b1e3fa" /><stop
         id="stop78"
         offset="1"
         style="stop-opacity:1;stop-color:#159fda" /></radialGradient><clipPath
       id="clipPath90"
       clipPathUnits="userSpaceOnUse"><path
         id="path88"
         d="m 359.427,478.45 c 0,-91.617 74.27,-165.887 165.887,-165.887 v 0 c 18.694,0 36.665,3.095 53.431,8.795 v 0 c -3.551,17.787 -14.437,56.512 -45.726,91.925 v 0 c -42.323,47.9 -95.472,71.522 -125.657,106.299 v 0 c -10.809,12.456 -20.035,25.226 -27.438,38.789 v 0 c -13.06,-23.706 -20.497,-50.944 -20.497,-79.921" /></clipPath><radialGradient
       id="radialGradient108"
       spreadMethod="pad"
       gradientTransform="matrix(326.76865,-23.724398,-23.724398,-326.76865,469.08594,435.46677)"
       gradientUnits="userSpaceOnUse"
       r="1"
       cy="0"
       cx="0"
       fy="0"
       fx="0"><stop
         id="stop96"
         offset="0"
         style="stop-opacity:1;stop-color:#b3e2f2" /><stop
         id="stop98"
         offset="0.13711485"
         style="stop-opacity:1;stop-color:#b3e2f2" /><stop
         id="stop100"
         offset="0.483146"
         style="stop-opacity:1;stop-color:#45ade2" /><stop
         id="stop102"
         offset="0.5656981"
         style="stop-opacity:1;stop-color:#45ade2" /><stop
         id="stop104"
         offset="0.859551"
         style="stop-opacity:1;stop-color:#3a58a7" /><stop
         id="stop106"
         offset="1"
         style="stop-opacity:1;stop-color:#3a58a7" /></radialGradient><clipPath
       id="clipPath118"
       clipPathUnits="userSpaceOnUse"><path
         id="path116"
         d="m 349.829,624.894 c 2.201,-66.212 41.131,-115.337 94.552,-152.201 v 0 c 77.097,-48.842 122.678,-96.799 135.958,-161.28 v 0 c -0.002,0.011 -5.002,53.974 -47.32,101.87 v 0 c -42.323,47.9 -95.472,71.522 -125.657,106.299 v 0 c -30.183,34.777 -48.094,71.976 -48.094,122.172 v 0 c -3.384,-5.656 -6.518,-11.276 -9.439,-16.86" /></clipPath><radialGradient
       id="radialGradient128"
       spreadMethod="pad"
       gradientTransform="matrix(-42.873138,-263.83469,-263.83469,42.873138,437.15289,658.31616)"
       gradientUnits="userSpaceOnUse"
       r="1"
       cy="0"
       cx="0"
       fy="0"
       fx="0"><stop
         id="stop124"
         offset="0"
         style="stop-opacity:1;stop-color:#b1e3fa" /><stop
         id="stop126"
         offset="1"
         style="stop-opacity:1;stop-color:#159fda" /></radialGradient><clipPath
       id="clipPath138"
       clipPathUnits="userSpaceOnUse"><path
         id="path136"
         d="m 388.398,627.836 c 0,-59.982 40.897,-96.107 40.897,-96.107 v 0 c 0,0 28.885,-26.798 61.464,-45.043 v 0 c 30.405,-19.98 113.208,-94.505 105.858,-167.031 v 0 c 0.009,0.005 0.019,0.011 0.029,0.016 v 0 c 1.254,1.343 61.642,66.54 31.61,147.056 v 0 c -17.403,45.469 -45.471,69.047 -68.486,86.449 v 0 c -25.822,17.963 -94.308,70.73 -95.992,148.198 v 0 c -1.684,77.467 63.547,128.35 63.547,128.35 v 0 c 0,0 -134.838,-88.739 -138.927,-201.888" /></clipPath><linearGradient
       id="linearGradient152"
       spreadMethod="pad"
       gradientTransform="matrix(242.65645,-204.34229,-204.34229,-242.65645,413.51254,699.70782)"
       gradientUnits="userSpaceOnUse"
       y2="0"
       x2="1"
       y1="0"
       x1="0"><stop
         id="stop144"
         offset="0"
         style="stop-opacity:1;stop-color:#65b045" /><stop
         id="stop146"
         offset="0.179775"
         style="stop-opacity:1;stop-color:#65b045" /><stop
         id="stop148"
         offset="0.66363503"
         style="stop-opacity:1;stop-color:#cddd4d" /><stop
         id="stop150"
         offset="1"
         style="stop-opacity:1;stop-color:#cddd4d" /></linearGradient><clipPath
       id="clipPath162"
       clipPathUnits="userSpaceOnUse"><path
         id="path160"
         d="m 429.291,531.728 c 0,0 28.89,-26.8 61.47,-45.039 v 0 c 30.4,-19.981 113.21,-94.51 105.861,-167.031 v 0 c 10.369,16.43 20.639,33.18 24.48,67.63 v 0 c 0,0 -0.37,66.35 -90.121,100.58 v 0 c -78.48,27.31 -88.429,34.58 -118.949,64.511 v 0 c 9.049,-13.401 17.259,-20.651 17.259,-20.651" /></clipPath><linearGradient
       id="linearGradient174"
       spreadMethod="pad"
       gradientTransform="matrix(209.07001,0,0,-209.07001,412.03143,436.01825)"
       gradientUnits="userSpaceOnUse"
       y2="0"
       x2="1"
       y1="0"
       x1="0"><stop
         id="stop168"
         offset="0"
         style="stop-opacity:1;stop-color:#1b5f2f" /><stop
         id="stop170"
         offset="0.00561798"
         style="stop-opacity:1;stop-color:#1b5f2f" /><stop
         id="stop172"
         offset="1"
         style="stop-opacity:1;stop-color:#90c73e" /></linearGradient><clipPath
       id="clipPath184"
       clipPathUnits="userSpaceOnUse"><path
         id="path182"
         d="m 530.981,487.868 c 89.751,-34.23 90.121,-100.58 90.121,-100.58 v 0 c 3.629,37.85 -15.891,68.55 -56.731,92.68 v 0 c -62.949,37.19 -89.72,20.17 -152.339,72.411 v 0 c 30.52,-29.931 40.469,-37.201 118.949,-64.511" /></clipPath><linearGradient
       id="linearGradient198"
       spreadMethod="pad"
       gradientTransform="matrix(209.49777,0,0,-209.49777,412.03143,469.83325)"
       gradientUnits="userSpaceOnUse"
       y2="0"
       x2="1"
       y1="0"
       x1="0"><stop
         id="stop190"
         offset="0"
         style="stop-opacity:1;stop-color:#65b045" /><stop
         id="stop192"
         offset="0.179775"
         style="stop-opacity:1;stop-color:#65b045" /><stop
         id="stop194"
         offset="0.66363503"
         style="stop-opacity:1;stop-color:#cddd4d" /><stop
         id="stop196"
         offset="1"
         style="stop-opacity:1;stop-color:#cddd4d" /></linearGradient><clipPath
       id="clipPath208"
       clipPathUnits="userSpaceOnUse"><path
         id="path206"
         d="m 498.408,764.331 c -16.966,-26.447 -16.466,-58.882 -16.466,-58.882 v 0 c 0,0 -1.498,-46.906 47.405,-99.302 v 0 c 57.884,-50.399 69.361,-55.888 91.816,-81.337 v 0 c 22.647,-24.451 45.824,-52.751 42.415,-97.804 v 0 c -3.22,-42.566 -6.956,-50.544 -7.359,-51.296 v 0 c 36.418,55.157 39.346,123.277 27.505,155.642 v 0 c -14.81,47.909 -37.743,78.849 -86.519,113.066 v 0 c -48.777,34.216 -76.779,85.586 -73.281,118.245 v 0 c 3.499,32.658 8.554,40.044 8.554,40.044 v 0 c 0,0 -17.103,-11.929 -34.07,-38.376" /></clipPath><linearGradient
       id="linearGradient222"
       spreadMethod="pad"
       gradientTransform="matrix(208.01198,0,0,-208.01198,481.93671,589.20868)"
       gradientUnits="userSpaceOnUse"
       y2="0"
       x2="1"
       y1="0"
       x1="0"><stop
         id="stop214"
         offset="0"
         style="stop-opacity:1;stop-color:#65b045" /><stop
         id="stop216"
         offset="0.179775"
         style="stop-opacity:1;stop-color:#65b045" /><stop
         id="stop218"
         offset="0.66363503"
         style="stop-opacity:1;stop-color:#cddd4d" /><stop
         id="stop220"
         offset="1"
         style="stop-opacity:1;stop-color:#cddd4d" /></linearGradient><clipPath
       id="clipPath232"
       clipPathUnits="userSpaceOnUse"><path
         id="path230"
         d="m 621.161,524.808 c 22.65,-24.449 45.831,-52.75 42.421,-97.799 v 0 c -3.121,-41.251 -6.73,-50.021 -7.311,-51.21 v 0 c 13.22,20.039 22.02,41.789 27.301,62.91 v 0 0.019 c -0.041,0.93 -1.44,33.31 -7.29,51.001 v 0 c -5.93,17.949 -11.481,33.699 -26.47,46.859 v 0 c -14.991,13.16 -32.101,17.34 -32.101,17.34 v 0 c 0,0 -37.51,10.231 -60.789,28.57 v 0 c 34.899,-29.44 45.92,-36.92 64.239,-57.69" /></clipPath><linearGradient
       id="linearGradient244"
       spreadMethod="pad"
       gradientTransform="matrix(126.65002,0,0,-126.65002,556.92139,479.14822)"
       gradientUnits="userSpaceOnUse"
       y2="0"
       x2="1"
       y1="0"
       x1="0"><stop
         id="stop238"
         offset="0"
         style="stop-opacity:1;stop-color:#1b5f2f" /><stop
         id="stop240"
         offset="0.00561798"
         style="stop-opacity:1;stop-color:#1b5f2f" /><stop
         id="stop242"
         offset="1"
         style="stop-opacity:1;stop-color:#90c73e" /></linearGradient><clipPath
       id="clipPath254"
       clipPathUnits="userSpaceOnUse"><path
         id="path252"
         d="m 529.351,606.148 c 10.61,-9.24 19.661,-16.959 27.501,-23.59 v 0 c 0.019,-0.019 0.049,-0.04 0.07,-0.06 v 0 c 23.279,-18.339 60.789,-28.57 60.789,-28.57 v 0 c 0,0 17.11,-4.18 32.101,-17.34 v 0 c 14.989,-13.16 20.54,-28.91 26.47,-46.859 v 0 c 5.85,-17.691 7.249,-50.071 7.29,-51.001 v 0 c 5.38,70.07 -29.051,98.37 -43.171,107.57 v 0 c -14.12,9.19 -31.2,16.74 -58.78,28.39 v 0 c -27.16,11.47 -67.82,50.56 -69.08,51.78 v 0 c 4.801,-6.62 10.371,-13.42 16.81,-20.32" /></clipPath><linearGradient
       id="linearGradient268"
       spreadMethod="pad"
       gradientTransform="matrix(171.59546,0,0,-171.59546,512.54138,532.59827)"
       gradientUnits="userSpaceOnUse"
       y2="0"
       x2="1"
       y1="0"
       x1="0"><stop
         id="stop260"
         offset="0"
         style="stop-opacity:1;stop-color:#65b045" /><stop
         id="stop262"
         offset="0.179775"
         style="stop-opacity:1;stop-color:#65b045" /><stop
         id="stop264"
         offset="0.66363503"
         style="stop-opacity:1;stop-color:#cddd4d" /><stop
         id="stop266"
         offset="1"
         style="stop-opacity:1;stop-color:#cddd4d" /></linearGradient><clipPath
       id="clipPath278"
       clipPathUnits="userSpaceOnUse"><path
         id="path276"
         d="m 514.006,538.105 c 2.717,-27.997 56.55,-12.246 18.327,9.147 v 0 c -1.599,0.895 -3.672,1.338 -5.849,1.338 v 0 c -6.165,0 -13.15,-3.557 -12.478,-10.485" /></clipPath><radialGradient
       id="radialGradient288"
       spreadMethod="pad"
       gradientTransform="matrix(10.814745,0,0,-10.814745,533.18097,536.84039)"
       gradientUnits="userSpaceOnUse"
       r="1"
       cy="0"
       cx="0"
       fy="0"
       fx="0"><stop
         id="stop284"
         offset="0"
         style="stop-opacity:1;stop-color:#ffffff" /><stop
         id="stop286"
         offset="1"
         style="stop-opacity:1;stop-color:#a6ce38" /></radialGradient><clipPath
       id="clipPath298"
       clipPathUnits="userSpaceOnUse"><path
         id="path296"
         d="M 0,1000 H 1000 V 0 H 0 Z" /></clipPath><clipPath
       id="clipPath326"
       clipPathUnits="userSpaceOnUse"><path
         id="path324"
         d="m 597.631,595.763 c 2.049,-21.116 42.65,-9.236 13.822,6.899 v 0 c -1.206,0.675 -2.77,1.009 -4.411,1.009 v 0 c -4.65,0 -9.919,-2.683 -9.411,-7.908" /></clipPath><radialGradient
       id="radialGradient336"
       spreadMethod="pad"
       gradientTransform="matrix(8.1565046,0,0,-8.1565046,612.09229,594.8092)"
       gradientUnits="userSpaceOnUse"
       r="1"
       cy="0"
       cx="0"
       fy="0"
       fx="0"><stop
         id="stop332"
         offset="0"
         style="stop-opacity:1;stop-color:#ffffff" /><stop
         id="stop334"
         offset="1"
         style="stop-opacity:1;stop-color:#a6ce38" /></radialGradient><clipPath
       id="clipPath346"
       clipPathUnits="userSpaceOnUse"><path
         id="path344"
         d="M 0,1000 H 1000 V 0 H 0 Z" /></clipPath></defs><g
     transform="matrix(1.3333333,0,0,-1.3333333,0,1333.3333)"
     id="g10"><g
       id="g12"><g
         clip-path="url(#clipPath18)"
         id="g14"><g
           transform="translate(260.4191,243.9921)"
           id="g20"><path
             id="path22"
             style="fill:#231f20;fill-opacity:1;fill-rule:nonzero;stroke:none"
             d="m 0,0 c -3.008,2.096 -6.579,3.143 -10.714,3.143 -3.525,0 -6.544,-0.661 -9.052,-1.984 -2.513,-1.323 -4.577,-3.103 -6.205,-5.334 -1.621,-2.234 -2.823,-4.785 -3.594,-7.652 -0.77,-2.866 -1.161,-5.845 -1.161,-8.931 0,-3.364 0.391,-6.547 1.161,-9.552 0.771,-3.004 1.973,-5.621 3.594,-7.855 1.628,-2.231 3.71,-4.011 6.246,-5.334 2.536,-1.323 5.566,-1.987 9.098,-1.987 2.588,0 4.888,0.429 6.906,1.285 2.007,0.855 3.744,2.039 5.211,3.555 1.454,1.515 2.605,3.321 3.427,5.417 0.828,2.096 1.323,4.353 1.489,6.783 h 7.856 c -0.77,-7.445 -3.335,-13.233 -7.689,-17.368 -4.353,-4.134 -10.311,-6.202 -17.862,-6.202 -4.577,0 -8.574,0.785 -11.99,2.355 -3.422,1.573 -6.257,3.735 -8.517,6.493 -2.266,2.754 -3.957,6.009 -5.09,9.759 -1.127,3.746 -1.696,7.772 -1.696,12.073 0,4.299 0.609,8.339 1.823,12.115 1.213,3.778 2.99,7.073 5.331,9.883 2.346,2.812 5.268,5.031 8.77,6.656 3.496,1.627 7.51,2.441 12.031,2.441 3.088,0 6.009,-0.414 8.764,-1.242 2.755,-0.825 5.21,-2.039 7.361,-3.637 2.151,-1.599 3.939,-3.597 5.377,-5.996 1.432,-2.398 2.369,-5.167 2.812,-8.312 H 5.826 C 4.946,-5.239 3.002,-2.096 0,0" /></g><g
           transform="translate(289.4434,207.7304)"
           id="g24"><path
             id="path26"
             style="fill:#231f20;fill-opacity:1;fill-rule:nonzero;stroke:none"
             d="m 0,0 c 0.69,-2.013 1.639,-3.698 2.853,-5.046 1.213,-1.352 2.633,-2.384 4.261,-3.1 1.621,-0.719 3.347,-1.078 5.164,-1.078 1.823,0 3.543,0.359 5.17,1.078 1.628,0.716 3.048,1.748 4.261,3.1 1.214,1.348 2.163,3.033 2.853,5.046 0.69,2.01 1.035,4.313 1.035,6.904 0,2.591 -0.345,4.891 -1.035,6.906 -0.69,2.011 -1.639,3.707 -2.853,5.084 -1.213,1.378 -2.633,2.427 -4.261,3.143 -1.627,0.716 -3.347,1.075 -5.17,1.075 -1.817,0 -3.543,-0.359 -5.164,-1.075 C 5.486,21.321 4.066,20.272 2.853,18.894 1.639,17.517 0.69,15.821 0,13.81 -0.69,11.795 -1.035,9.495 -1.035,6.904 -1.035,4.313 -0.69,2.01 0,0 m -7.154,15.711 c 0.88,2.729 2.203,5.098 3.968,7.111 1.766,2.016 3.945,3.6 6.533,4.759 2.594,1.156 5.572,1.734 8.931,1.734 3.422,0 6.412,-0.578 8.977,-1.734 2.559,-1.159 4.727,-2.743 6.487,-4.759 1.765,-2.013 3.088,-4.382 3.974,-7.111 0.88,-2.728 1.323,-5.664 1.323,-8.807 0,-3.143 -0.443,-6.064 -1.323,-8.767 -0.886,-2.7 -2.209,-5.058 -3.974,-7.068 -1.76,-2.016 -3.928,-3.586 -6.487,-4.716 -2.565,-1.13 -5.555,-1.696 -8.977,-1.696 -3.359,0 -6.337,0.566 -8.931,1.696 -2.588,1.13 -4.767,2.7 -6.533,4.716 -1.765,2.01 -3.088,4.368 -3.968,7.068 -0.88,2.703 -1.323,5.624 -1.323,8.767 0,3.143 0.443,6.079 1.323,8.807" /></g><g
           transform="translate(337.3649,236.0533)"
           id="g28"><path
             id="path30"
             style="fill:#231f20;fill-opacity:1;fill-rule:nonzero;stroke:none"
             d="m 0,0 v -6.286 h 0.167 c 3.197,4.851 7.798,7.278 13.807,7.278 2.646,0 5.044,-0.552 7.195,-1.654 2.151,-1.104 3.669,-2.976 4.549,-5.624 1.432,2.318 3.324,4.109 5.664,5.374 2.347,1.268 4.923,1.904 7.735,1.904 2.151,0 4.095,-0.236 5.832,-0.702 1.731,-0.468 3.22,-1.202 4.462,-2.191 1.242,-0.995 2.203,-2.274 2.893,-3.847 0.69,-1.57 1.035,-3.459 1.035,-5.665 v -31.342 h -7.027 v 28.033 c 0,1.325 -0.116,2.564 -0.334,3.723 -0.219,1.156 -0.633,2.163 -1.236,3.02 -0.61,0.854 -1.45,1.526 -2.525,2.024 -1.076,0.497 -2.467,0.745 -4.175,0.745 -3.474,0 -6.205,-0.992 -8.189,-2.976 -1.984,-1.984 -2.974,-4.633 -2.974,-7.939 v -26.63 h -7.033 v 28.033 c 0,1.38 -0.12,2.648 -0.374,3.804 -0.247,1.159 -0.673,2.165 -1.276,3.019 -0.61,0.857 -1.421,1.516 -2.445,1.987 -1.017,0.466 -2.329,0.702 -3.927,0.702 -2.036,0 -3.79,-0.414 -5.251,-1.243 C 5.113,-7.278 3.928,-8.27 3.019,-9.429 2.111,-10.588 1.449,-11.784 1.035,-13.026 0.621,-14.265 0.414,-15.3 0.414,-16.125 v -26.63 H -6.613 V 0 Z" /></g><g
           transform="translate(433.8293,220.8769)"
           id="g32"><path
             id="path34"
             style="fill:#231f20;fill-opacity:1;fill-rule:nonzero;stroke:none"
             d="m 0,0 c -0.523,1.903 -1.323,3.6 -2.398,5.086 -1.076,1.487 -2.45,2.675 -4.135,3.557 -1.679,0.883 -3.652,1.323 -5.912,1.323 -2.369,0 -4.382,-0.469 -6.038,-1.406 -1.651,-0.938 -3.002,-2.162 -4.049,-3.681 -1.047,-1.515 -1.806,-3.24 -2.277,-5.167 -0.466,-1.932 -0.702,-3.887 -0.702,-5.871 0,-2.097 0.248,-4.123 0.748,-6.079 0.495,-1.958 1.277,-3.68 2.352,-5.17 1.075,-1.486 2.467,-2.686 4.181,-3.597 1.708,-0.909 3.772,-1.366 6.199,-1.366 2.427,0 4.451,0.469 6.079,1.409 1.627,0.935 2.933,2.177 3.928,3.721 0.994,1.541 1.707,3.307 2.15,5.291 0.443,1.984 0.662,4.025 0.662,6.119 C 0.788,-3.845 0.523,-1.901 0,0 M -25.263,15.176 V 9.388 h 0.166 c 1.156,2.369 2.979,4.095 5.458,5.17 2.484,1.072 5.21,1.61 8.189,1.61 3.307,0 6.188,-0.606 8.638,-1.82 2.455,-1.213 4.497,-2.852 6.124,-4.92 1.622,-2.067 2.853,-4.454 3.675,-7.154 0.828,-2.703 1.242,-5.569 1.242,-8.6 0,-3.031 -0.397,-5.9 -1.196,-8.6 -0.799,-2.7 -2.013,-5.058 -3.64,-7.071 -1.628,-2.013 -3.669,-3.597 -6.119,-4.756 -2.456,-1.156 -5.308,-1.737 -8.563,-1.737 -1.047,0 -2.22,0.113 -3.514,0.334 -1.294,0.219 -2.576,0.578 -3.841,1.072 -1.271,0.498 -2.467,1.171 -3.6,2.028 -1.127,0.854 -2.082,1.915 -2.853,3.185 h -0.166 V -43.87 h -7.028 v 59.046 z" /></g><g
           transform="translate(473.32,213.9328)"
           id="g36"><path
             id="path38"
             style="fill:#231f20;fill-opacity:1;fill-rule:nonzero;stroke:none"
             d="m 0,0 c -1.438,-0.305 -2.939,-0.552 -4.509,-0.745 -1.57,-0.195 -3.157,-0.414 -4.756,-0.661 -1.598,-0.25 -3.03,-0.65 -4.301,-1.199 -1.265,-0.552 -2.301,-1.34 -3.1,-2.358 -0.799,-1.021 -1.196,-2.412 -1.196,-4.178 0,-1.156 0.23,-2.136 0.701,-2.933 0.466,-0.799 1.076,-1.449 1.818,-1.944 0.747,-0.497 1.627,-0.857 2.645,-1.075 1.024,-0.221 2.053,-0.334 3.106,-0.334 2.311,0 4.295,0.32 5.952,0.955 1.656,0.633 3.002,1.432 4.054,2.398 1.047,0.963 1.817,2.01 2.312,3.143 0.494,1.127 0.748,2.191 0.748,3.183 V 1.446 C 2.588,0.785 1.432,0.302 0,0 m 9.84,-21.545 c -1.823,0 -3.267,0.511 -4.342,1.532 -1.076,1.018 -1.616,2.689 -1.616,5.003 -1.927,-2.314 -4.175,-3.985 -6.735,-5.003 -2.564,-1.021 -5.336,-1.532 -8.315,-1.532 -1.927,0 -3.75,0.209 -5.458,0.621 -1.708,0.414 -3.209,1.104 -4.503,2.067 -1.299,0.963 -2.317,2.205 -3.059,3.724 -0.748,1.515 -1.121,3.347 -1.121,5.497 0,2.427 0.414,4.411 1.242,5.955 0.828,1.545 1.915,2.798 3.266,3.761 1.352,0.966 2.893,1.697 4.63,2.194 1.736,0.495 3.513,0.909 5.336,1.24 1.927,0.382 3.761,0.675 5.498,0.868 1.737,0.193 3.267,0.466 4.589,0.825 1.323,0.36 2.369,0.883 3.146,1.573 0.77,0.687 1.156,1.694 1.156,3.019 0,1.541 -0.288,2.784 -0.868,3.718 -0.581,0.937 -1.323,1.656 -2.232,2.151 -0.908,0.497 -1.932,0.828 -3.059,0.995 -1.133,0.164 -2.249,0.247 -3.353,0.247 -2.973,0 -5.457,-0.563 -7.441,-1.696 -1.984,-1.13 -3.06,-3.264 -3.227,-6.41 h -7.027 c 0.109,2.649 0.661,4.883 1.656,6.7 0.989,1.82 2.312,3.295 3.968,4.425 1.651,1.13 3.554,1.944 5.705,2.439 2.151,0.497 4.411,0.744 6.78,0.744 1.932,0 3.847,-0.138 5.751,-0.414 1.898,-0.276 3.623,-0.839 5.164,-1.693 1.547,-0.854 2.784,-2.056 3.721,-3.597 0.937,-1.547 1.409,-3.557 1.409,-6.039 v -21.997 c 0,-1.653 0.098,-2.867 0.287,-3.637 0.196,-0.774 0.84,-1.162 1.944,-1.162 0.61,0 1.323,0.138 2.151,0.417 v -5.46 c -1.214,-0.716 -2.893,-1.075 -5.043,-1.075" /></g><g
           transform="translate(501.3494,236.0533)"
           id="g40"><path
             id="path42"
             style="fill:#231f20;fill-opacity:1;fill-rule:nonzero;stroke:none"
             d="m 0,0 v -6.783 h 0.167 c 2.921,5.184 7.551,7.775 13.894,7.775 2.812,0 5.152,-0.385 7.027,-1.156 1.875,-0.774 3.393,-1.849 4.549,-3.226 1.156,-1.381 1.973,-3.019 2.439,-4.92 0.471,-1.904 0.707,-4.011 0.707,-6.326 V -42.755 H 21.75 v 28.944 c 0,2.646 -0.771,4.742 -2.312,6.286 -1.547,1.541 -3.669,2.315 -6.372,2.315 -2.151,0 -4.008,-0.331 -5.578,-0.992 C 5.918,-6.864 4.607,-7.801 3.56,-9.015 2.507,-10.228 1.725,-11.648 1.202,-13.273 0.679,-14.901 0.414,-16.677 0.414,-18.607 V -42.755 H -6.613 V 0 Z" /></g><g
           transform="translate(555.062,182.3837)"
           id="g44"><path
             id="path46"
             style="fill:#231f20;fill-opacity:1;fill-rule:nonzero;stroke:none"
             d="m 0,0 c -0.799,-1.432 -1.679,-2.608 -2.646,-3.517 -0.966,-0.908 -2.024,-1.569 -3.185,-1.984 -1.156,-0.414 -2.536,-0.618 -4.135,-0.618 -0.823,0 -1.651,0.052 -2.479,0.164 -0.828,0.112 -1.627,0.305 -2.398,0.578 v 6.45 c 0.662,-0.219 1.334,-0.438 2.024,-0.662 0.69,-0.218 1.392,-0.328 2.111,-0.328 1.432,0 2.588,0.328 3.474,0.99 0.879,0.661 1.656,1.63 2.317,2.895 l 2.893,7.194 -16.954,42.508 h 7.936 L 1.449,18.69 h 0.167 l 11.99,34.98 h 7.442 L 2.438,5.291 C 1.616,3.198 0.799,1.435 0,0" /></g><g
           transform="translate(614.0651,252.3454)"
           id="g48"><path
             id="path50"
             style="fill:#231f20;fill-opacity:1;fill-rule:nonzero;stroke:none"
             d="m 0,0 v -52.43 h 31.261 v -6.617 H -7.855 V 0 Z" /></g><g
           transform="translate(657.1964,207.7304)"
           id="g52"><path
             id="path54"
             style="fill:#231f20;fill-opacity:1;fill-rule:nonzero;stroke:none"
             d="m 0,0 c 0.684,-2.013 1.639,-3.698 2.852,-5.046 1.214,-1.352 2.628,-2.384 4.256,-3.1 1.627,-0.719 3.353,-1.078 5.17,-1.078 1.817,0 3.542,0.359 5.17,1.078 1.627,0.716 3.042,1.748 4.256,3.1 1.213,1.348 2.168,3.033 2.858,5.046 0.684,2.01 1.029,4.313 1.029,6.904 0,2.591 -0.345,4.891 -1.029,6.906 -0.69,2.011 -1.645,3.707 -2.858,5.084 -1.214,1.378 -2.629,2.427 -4.256,3.143 -1.628,0.716 -3.353,1.075 -5.17,1.075 -1.817,0 -3.543,-0.359 -5.17,-1.075 C 5.48,21.321 4.066,20.272 2.852,18.894 1.639,17.517 0.684,15.821 0,13.81 -0.69,11.795 -1.035,9.495 -1.035,6.904 -1.035,4.313 -0.69,2.01 0,0 m -7.154,15.711 c 0.88,2.729 2.202,5.098 3.968,7.111 1.766,2.016 3.939,3.6 6.533,4.759 2.594,1.156 5.567,1.734 8.931,1.734 3.416,0 6.412,-0.578 8.971,-1.734 2.565,-1.159 4.728,-2.743 6.493,-4.759 1.765,-2.013 3.088,-4.382 3.968,-7.111 0.886,-2.728 1.322,-5.664 1.322,-8.807 0,-3.143 -0.436,-6.064 -1.322,-8.767 -0.88,-2.7 -2.203,-5.058 -3.968,-7.068 -1.765,-2.016 -3.928,-3.586 -6.493,-4.716 -2.559,-1.13 -5.555,-1.696 -8.971,-1.696 -3.364,0 -6.337,0.566 -8.931,1.696 -2.594,1.13 -4.767,2.7 -6.533,4.716 -1.766,2.01 -3.088,4.368 -3.968,7.068 -0.886,2.703 -1.323,5.624 -1.323,8.767 0,3.143 0.437,6.079 1.323,8.807" /></g><g
           transform="translate(721.6169,200.45)"
           id="g56"><path
             id="path58"
             style="fill:#231f20;fill-opacity:1;fill-rule:nonzero;stroke:none"
             d="m 0,0 c 1.622,0.966 2.933,2.234 3.928,3.807 0.989,1.57 1.719,3.347 2.191,5.334 0.466,1.984 0.701,3.968 0.701,5.955 0,1.872 -0.218,3.721 -0.661,5.538 -0.443,1.82 -1.144,3.459 -2.11,4.922 -0.966,1.458 -2.22,2.631 -3.762,3.514 -1.546,0.883 -3.421,1.323 -5.624,1.323 -2.26,0 -4.192,-0.429 -5.785,-1.282 -1.605,-0.855 -2.91,-1.999 -3.928,-3.431 -1.024,-1.435 -1.765,-3.088 -2.237,-4.963 -0.466,-1.875 -0.702,-3.833 -0.702,-5.872 0,-1.929 0.19,-3.858 0.581,-5.788 0.385,-1.932 1.047,-3.68 1.984,-5.25 0.938,-1.573 2.174,-2.841 3.721,-3.807 1.541,-0.963 3.474,-1.444 5.785,-1.444 2.318,0 4.291,0.481 5.918,1.444 m 8.971,-19.225 c -3.197,-3.473 -8.218,-5.21 -15.05,-5.21 -1.989,0 -4.014,0.221 -6.078,0.661 -2.07,0.443 -3.945,1.156 -5.625,2.151 -1.684,0.992 -3.076,2.289 -4.174,3.887 -1.105,1.599 -1.714,3.554 -1.824,5.872 h 7.034 c 0.051,-1.268 0.454,-2.343 1.196,-3.226 0.747,-0.883 1.656,-1.599 2.732,-2.151 1.069,-0.549 2.242,-0.949 3.513,-1.199 1.265,-0.247 2.479,-0.371 3.635,-0.371 2.317,0 4.273,0.4 5.871,1.199 1.599,0.799 2.927,1.901 3.974,3.307 1.047,1.406 1.8,3.102 2.272,5.086 0.465,1.984 0.707,4.161 0.707,6.533 V 0.123 H 6.987 C 5.774,-2.522 3.939,-4.463 1.49,-5.705 c -2.456,-1.239 -5.061,-1.86 -7.822,-1.86 -3.197,0 -5.98,0.578 -8.35,1.737 -2.369,1.158 -4.353,2.714 -5.952,4.672 -1.599,1.955 -2.801,4.244 -3.6,6.863 -0.799,2.62 -1.196,5.389 -1.196,8.31 0,2.537 0.328,5.142 0.989,7.816 0.661,2.674 1.765,5.101 3.307,7.278 1.547,2.179 3.588,3.97 6.124,5.376 2.537,1.407 5.648,2.108 9.34,2.108 2.703,0 5.187,-0.592 7.447,-1.777 2.26,-1.185 4.026,-2.964 5.291,-5.334 h 0.086 v 6.119 h 6.614 V -3.511 c 0,-7.002 -1.599,-12.241 -4.797,-15.714" /></g><g
           transform="translate(752.1308,207.7304)"
           id="g60"><path
             id="path62"
             style="fill:#231f20;fill-opacity:1;fill-rule:nonzero;stroke:none"
             d="m 0,0 c 0.69,-2.013 1.639,-3.698 2.852,-5.046 1.214,-1.352 2.634,-2.384 4.256,-3.1 1.627,-0.719 3.353,-1.078 5.17,-1.078 1.823,0 3.542,0.359 5.17,1.078 1.627,0.716 3.042,1.748 4.261,3.1 1.208,1.348 2.157,3.033 2.853,5.046 0.69,2.01 1.029,4.313 1.029,6.904 0,2.591 -0.339,4.891 -1.029,6.906 -0.696,2.011 -1.645,3.707 -2.853,5.084 -1.219,1.378 -2.634,2.427 -4.261,3.143 -1.628,0.716 -3.347,1.075 -5.17,1.075 -1.817,0 -3.543,-0.359 -5.17,-1.075 C 5.486,21.321 4.066,20.272 2.852,18.894 1.639,17.517 0.69,15.821 0,13.81 -0.69,11.795 -1.035,9.495 -1.035,6.904 -1.035,4.313 -0.69,2.01 0,0 m -7.154,15.711 c 0.88,2.729 2.202,5.098 3.968,7.111 1.766,2.016 3.939,3.6 6.533,4.759 2.594,1.156 5.567,1.734 8.931,1.734 3.416,0 6.412,-0.578 8.971,-1.734 2.565,-1.159 4.727,-2.743 6.493,-4.759 1.765,-2.013 3.088,-4.382 3.968,-7.111 0.886,-2.728 1.328,-5.664 1.328,-8.807 0,-3.143 -0.442,-6.064 -1.328,-8.767 -0.88,-2.7 -2.203,-5.058 -3.968,-7.068 -1.766,-2.016 -3.928,-3.586 -6.493,-4.716 -2.559,-1.13 -5.555,-1.696 -8.971,-1.696 -3.364,0 -6.337,0.566 -8.931,1.696 -2.594,1.13 -4.767,2.7 -6.533,4.716 -1.766,2.01 -3.088,4.368 -3.968,7.068 -0.886,2.703 -1.323,5.624 -1.323,8.767 0,3.143 0.437,6.079 1.323,8.807" /></g></g></g><g
       id="g64"><g
         clip-path="url(#clipPath70)"
         id="g66"><g
           id="g72"><g
             id="g74"><path
               id="path82"
               style="fill:url(#radialGradient80);stroke:none"
               d="m 357.262,365.864 c 30.696,-39.504 112.281,-95.572 212.54,-58.76 v 0 c 3.608,1.352 7.12,2.79 10.537,4.309 v 0 c 0,0 -4.998,53.97 -47.32,101.87 v 0 c -42.323,47.9 -95.472,71.522 -125.657,106.299 v 0 c -30.183,34.777 -48.094,71.976 -48.094,122.172 v 0 C 283.068,514.396 327.52,404.14 357.262,365.864" /></g></g></g></g><g
       id="g84"><g
         clip-path="url(#clipPath90)"
         id="g86"><g
           id="g92"><g
             id="g94"><path
               id="path110"
               style="fill:url(#radialGradient108);stroke:none"
               d="m 359.427,478.45 c 0,-91.617 74.27,-165.887 165.887,-165.887 v 0 c 18.694,0 36.665,3.095 53.431,8.795 v 0 c -3.551,17.787 -14.437,56.512 -45.726,91.925 v 0 c -42.323,47.9 -95.472,71.522 -125.657,106.299 v 0 c -10.809,12.456 -20.035,25.226 -27.438,38.789 v 0 c -13.06,-23.706 -20.497,-50.944 -20.497,-79.921" /></g></g></g></g><g
       id="g112"><g
         clip-path="url(#clipPath118)"
         id="g114"><g
           id="g120"><g
             id="g122"><path
               id="path130"
               style="fill:url(#radialGradient128);stroke:none"
               d="m 349.829,624.894 c 2.201,-66.212 41.131,-115.337 94.552,-152.201 v 0 c 77.097,-48.842 122.678,-96.799 135.958,-161.28 v 0 c -0.002,0.011 -5.002,53.974 -47.32,101.87 v 0 c -42.323,47.9 -95.472,71.522 -125.657,106.299 v 0 c -30.183,34.777 -48.094,71.976 -48.094,122.172 v 0 c -3.384,-5.656 -6.518,-11.276 -9.439,-16.86" /></g></g></g></g><g
       id="g132"><g
         clip-path="url(#clipPath138)"
         id="g134"><g
           id="g140"><g
             id="g142"><path
               id="path154"
               style="fill:url(#linearGradient152);stroke:none"
               d="m 388.398,627.836 c 0,-59.982 40.897,-96.107 40.897,-96.107 v 0 c 0,0 28.885,-26.798 61.464,-45.043 v 0 c 30.405,-19.98 113.208,-94.505 105.858,-167.031 v 0 c 0.009,0.005 0.019,0.011 0.029,0.016 v 0 c 1.254,1.343 61.642,66.54 31.61,147.056 v 0 c -17.403,45.469 -45.471,69.047 -68.486,86.449 v 0 c -25.822,17.963 -94.308,70.73 -95.992,148.198 v 0 c -1.684,77.467 63.547,128.35 63.547,128.35 v 0 c 0,0 -134.838,-88.739 -138.927,-201.888" /></g></g></g></g><g
       id="g156"><g
         clip-path="url(#clipPath162)"
         id="g158"><g
           id="g164"><g
             id="g166"><path
               id="path176"
               style="fill:url(#linearGradient174);stroke:none"
               d="m 429.291,531.728 c 0,0 28.89,-26.8 61.47,-45.039 v 0 c 30.4,-19.981 113.21,-94.51 105.861,-167.031 v 0 c 10.369,16.43 20.639,33.18 24.48,67.63 v 0 c 0,0 -0.37,66.35 -90.121,100.58 v 0 c -78.48,27.31 -88.429,34.58 -118.949,64.511 v 0 c 9.049,-13.401 17.259,-20.651 17.259,-20.651" /></g></g></g></g><g
       id="g178"><g
         clip-path="url(#clipPath184)"
         id="g180"><g
           id="g186"><g
             id="g188"><path
               id="path200"
               style="fill:url(#linearGradient198);stroke:none"
               d="m 530.981,487.868 c 89.751,-34.23 90.121,-100.58 90.121,-100.58 v 0 c 3.629,37.85 -15.891,68.55 -56.731,92.68 v 0 c -62.949,37.19 -89.72,20.17 -152.339,72.411 v 0 c 30.52,-29.931 40.469,-37.201 118.949,-64.511" /></g></g></g></g><g
       id="g202"><g
         clip-path="url(#clipPath208)"
         id="g204"><g
           id="g210"><g
             id="g212"><path
               id="path224"
               style="fill:url(#linearGradient222);stroke:none"
               d="m 498.408,764.331 c -16.966,-26.447 -16.466,-58.882 -16.466,-58.882 v 0 c 0,0 -1.498,-46.906 47.405,-99.302 v 0 c 57.884,-50.399 69.361,-55.888 91.816,-81.337 v 0 c 22.647,-24.451 45.824,-52.751 42.415,-97.804 v 0 c -3.22,-42.566 -6.956,-50.544 -7.359,-51.296 v 0 c 36.418,55.157 39.346,123.277 27.505,155.642 v 0 c -14.81,47.909 -37.743,78.849 -86.519,113.066 v 0 c -48.777,34.216 -76.779,85.586 -73.281,118.245 v 0 c 3.499,32.658 8.554,40.044 8.554,40.044 v 0 c 0,0 -17.103,-11.929 -34.07,-38.376" /></g></g></g></g><g
       id="g226"><g
         clip-path="url(#clipPath232)"
         id="g228"><g
           id="g234"><g
             id="g236"><path
               id="path246"
               style="fill:url(#linearGradient244);stroke:none"
               d="m 621.161,524.808 c 22.65,-24.449 45.831,-52.75 42.421,-97.799 v 0 c -3.121,-41.251 -6.73,-50.021 -7.311,-51.21 v 0 c 13.22,20.039 22.02,41.789 27.301,62.91 v 0 0.019 c -0.041,0.93 -1.44,33.31 -7.29,51.001 v 0 c -5.93,17.949 -11.481,33.699 -26.47,46.859 v 0 c -14.991,13.16 -32.101,17.34 -32.101,17.34 v 0 c 0,0 -37.51,10.231 -60.789,28.57 v 0 c 34.899,-29.44 45.92,-36.92 64.239,-57.69" /></g></g></g></g><g
       id="g248"><g
         clip-path="url(#clipPath254)"
         id="g250"><g
           id="g256"><g
             id="g258"><path
               id="path270"
               style="fill:url(#linearGradient268);stroke:none"
               d="m 529.351,606.148 c 10.61,-9.24 19.661,-16.959 27.501,-23.59 v 0 c 0.019,-0.019 0.049,-0.04 0.07,-0.06 v 0 c 23.279,-18.339 60.789,-28.57 60.789,-28.57 v 0 c 0,0 17.11,-4.18 32.101,-17.34 v 0 c 14.989,-13.16 20.54,-28.91 26.47,-46.859 v 0 c 5.85,-17.691 7.249,-50.071 7.29,-51.001 v 0 c 5.38,70.07 -29.051,98.37 -43.171,107.57 v 0 c -14.12,9.19 -31.2,16.74 -58.78,28.39 v 0 c -27.16,11.47 -67.82,50.56 -69.08,51.78 v 0 c 4.801,-6.62 10.371,-13.42 16.81,-20.32" /></g></g></g></g><g
       id="g272"><g
         clip-path="url(#clipPath278)"
         id="g274"><g
           id="g280"><g
             id="g282"><path
               id="path290"
               style="fill:url(#radialGradient288);stroke:none"
               d="m 514.006,538.105 c 2.717,-27.997 56.55,-12.246 18.327,9.147 v 0 c -1.599,0.895 -3.672,1.338 -5.849,1.338 v 0 c -6.165,0 -13.15,-3.557 -12.478,-10.485" /></g></g></g></g><g
       id="g292"><g
         clip-path="url(#clipPath298)"
         id="g294"><g
           transform="translate(541.5696,540.6617)"
           id="g300"><path
             id="path302"
             style="fill:#008845;fill-opacity:1;fill-rule:evenodd;stroke:none"
             d="m 0,0 c 16.206,-15.81 -16.757,-25.415 -25.577,-9.294 0.183,-0.273 6.314,-9.281 18.142,-6.332 C 4.554,-12.636 4.441,-5.904 0,0" /></g><g
           transform="translate(540.5569,533.5261)"
           id="g304"><path
             id="path306"
             style="fill:#dae79c;fill-opacity:1;fill-rule:evenodd;stroke:none"
             d="m 0,0 c 0,0 2.996,2.677 -1.643,7.636 -4.639,4.96 -12.116,7.364 -16.915,4.351 -4.798,-3.013 -2.377,-8.133 1.123,-5.927 3.5,2.207 8.394,0.625 7.959,-1.398 -0.433,-2.023 -3.917,-3.507 -1.868,-6.53 2.049,-3.024 9.094,-1.702 10.219,0.083 z" /></g><g
           transform="translate(533.8177,542.8093)"
           id="g308"><path
             id="path310"
             style="fill:#ffffff;fill-opacity:1;fill-rule:evenodd;stroke:none"
             d="m 0,0 c -2.322,2.429 -5.769,3.704 -8.287,2.469 -2.817,-1.381 -1.781,-4.341 0.274,-3.328 0.924,0.455 5.521,0.418 4.102,-1.62 C -3.047,-2.489 -0.515,-0.564 0,0" /></g><g
           transform="translate(538.4759,534.8923)"
           id="g312"><path
             id="path314"
             style="fill:#ffffff;fill-opacity:1;fill-rule:evenodd;stroke:none"
             d="M 0,0 C 1.483,1.067 0.207,3.435 -0.515,4.365 -1.868,3.129 -4.433,1.219 -6.441,1.187 -7.797,-1.443 -2.047,-2.6 -0.723,-0.919 Z" /></g><g
           transform="translate(536.7249,527.7966)"
           id="g316"><path
             id="path318"
             style="fill:#53ba62;fill-opacity:1;fill-rule:evenodd;stroke:none"
             d="m 0,0 c 0,0 -4.526,-4.223 -11.864,0.542 -7.338,4.764 -7.822,7.887 -8.567,10.464 -0.744,2.579 -2.925,-1.074 0.635,-6.376 3.563,-5.302 7.434,-5.634 11.044,-6.747 C -5.142,-3.229 0,0 0,0" /></g></g></g><g
       id="g320"><g
         clip-path="url(#clipPath326)"
         id="g322"><g
           id="g328"><g
             id="g330"><path
               id="path338"
               style="fill:url(#radialGradient336);stroke:none"
               d="m 597.631,595.763 c 2.049,-21.116 42.65,-9.236 13.822,6.899 v 0 c -1.206,0.675 -2.77,1.009 -4.411,1.009 v 0 c -4.65,0 -9.919,-2.683 -9.411,-7.908" /></g></g></g></g><g
       id="g340"><g
         clip-path="url(#clipPath346)"
         id="g342"><g
           transform="translate(618.419,597.6913)"
           id="g348"><path
             id="path350"
             style="fill:#008845;fill-opacity:1;fill-rule:evenodd;stroke:none"
             d="m 0,0 c 12.223,-11.924 -12.638,-19.168 -19.29,-7.01 0.137,-0.206 4.762,-6.999 13.682,-4.775 C 3.434,-9.53 3.35,-4.453 0,0" /></g><g
           transform="translate(617.6553,592.3096)"
           id="g352"><path
             id="path354"
             style="fill:#dae79c;fill-opacity:1;fill-rule:evenodd;stroke:none"
             d="m 0,0 c 0,0 2.26,2.019 -1.239,5.759 -3.499,3.741 -9.138,5.554 -12.757,3.282 -3.619,-2.273 -1.794,-6.134 0.847,-4.47 2.64,1.664 6.33,0.471 6.003,-1.055 -0.328,-1.526 -2.955,-2.645 -1.409,-4.925 1.545,-2.28 6.858,-1.284 7.706,0.063 z" /></g><g
           transform="translate(612.5725,599.311)"
           id="g356"><path
             id="path358"
             style="fill:#ffffff;fill-opacity:1;fill-rule:evenodd;stroke:none"
             d="M 0,0 C -1.751,1.832 -4.351,2.794 -6.25,1.862 -8.375,0.82 -7.594,-1.412 -6.043,-0.648 -5.346,-0.305 -1.88,-0.333 -2.95,-1.87 -2.298,-1.877 -0.388,-0.425 0,0" /></g><g
           transform="translate(616.0858,593.34)"
           id="g360"><path
             id="path362"
             style="fill:#ffffff;fill-opacity:1;fill-rule:evenodd;stroke:none"
             d="M 0,0 C 1.119,0.805 0.156,2.591 -0.388,3.292 -1.409,2.36 -3.343,0.919 -4.858,0.896 -5.88,-1.089 -1.544,-1.961 -0.545,-0.693 Z" /></g><g
           transform="translate(614.7651,587.9883)"
           id="g364"><path
             id="path366"
             style="fill:#53ba62;fill-opacity:1;fill-rule:evenodd;stroke:none"
             d="m 0,0 c 0,0 -3.414,-3.185 -8.948,0.409 -5.534,3.593 -5.9,5.948 -6.461,7.892 -0.561,1.945 -2.206,-0.811 0.479,-4.809 2.687,-3.999 5.606,-4.249 8.329,-5.089 C -3.878,-2.436 0,0 0,0" /></g></g></g></g></svg>